<svg width="51" height="51" viewBox="0 0 51 51" fill="none" xmlns="http://www.w3.org/2000/svg">
<g clip-path="url(#clip0_968_10205)">
<path d="M25.01 0.5C11.19 0.5 0 11.69 0 25.51C0 39.33 11.19 50.52 25.01 50.52C38.83 50.52 50.02 39.33 50.02 25.51C50.02 11.69 38.81 0.5 25.01 0.5ZM34.25 36.27H29.76V33.81C29.76 33.81 27.06 36.73 22.81 36.73C17.21 36.73 12.27 31.81 12.27 25.51C12.27 19.21 17.21 14.29 22.81 14.29C27.08 14.29 29.76 17.21 29.76 17.21V14.82H34.25V36.26V36.27ZM38.74 36.73C37.51 36.73 36.5 35.72 36.5 34.49C36.5 33.26 37.51 32.25 38.74 32.25C39.97 32.25 40.98 33.26 40.98 34.49C40.96 35.72 39.97 36.73 38.74 36.73Z" fill="#AFDDD9"/>
<path d="M23.2795 18.3496C19.9295 18.3496 16.7695 21.4896 16.7695 25.5096C16.7695 29.5296 19.9095 32.6696 23.2795 32.6696C26.6495 32.6696 29.7895 29.5296 29.7895 25.5096C29.7695 21.4796 26.6295 18.3496 23.2795 18.3496Z" fill="#AFDDD9"/>
</g>
<defs>
<clipPath id="clip0_968_10205">
<rect width="51" height="51" fill="white"/>
</clipPath>
</defs>
</svg>
