<svg width="582" height="106" viewBox="0 0 582 106" fill="none" preserveAspectRatio="none" xmlns="http://www.w3.org/2000/svg">
<path d="M0 98.1299L0.102539 98.1348C0.606656 98.1861 1 98.6122 1 99.1299V105H7.07324V106H0V98.1299ZM7.07324 105C7.62538 105 8.07324 105.448 8.07324 106H7.07324V105ZM11.1143 106H10.1143C10.1143 105.448 10.5621 105 11.1143 105V106ZM25.2607 105V106H11.1143V105H25.2607ZM25.2607 105C25.8129 105 26.2607 105.448 26.2607 106H25.2607V105ZM29.3018 106H28.3018C28.3018 105.448 28.7496 105 29.3018 105V106ZM43.4482 105V106H29.3018V105H43.4482ZM43.4482 105C44.0004 105 44.4482 105.448 44.4482 106H43.4482V105ZM47.4893 106H46.4893C46.4893 105.448 46.9371 105 47.4893 105V106ZM61.6357 105V106H47.4893V105H61.6357ZM61.6357 105C62.1879 105 62.6357 105.448 62.6357 106H61.6357V105ZM65.6768 106H64.6768C64.6768 105.448 65.1246 105 65.6768 105V106ZM79.8232 105V106H65.6768V105H79.8232ZM79.8232 105C80.3754 105 80.8232 105.448 80.8232 106H79.8232V105ZM83.8643 106H82.8643C82.8643 105.448 83.3121 105 83.8643 105V106ZM98.0107 105V106H83.8643V105H98.0107ZM98.0107 105C98.5629 105 99.0107 105.448 99.0107 106H98.0107V105ZM102.052 106H101.052C101.052 105.448 101.5 105 102.052 105V106ZM116.198 105V106H102.052V105H116.198ZM116.198 105C116.75 105 117.198 105.448 117.198 106H116.198V105ZM120.239 106H119.239C119.239 105.448 119.687 105 120.239 105V106ZM134.386 105V106H120.239V105H134.386ZM134.386 105C134.938 105 135.386 105.448 135.386 106H134.386V105ZM138.427 106H137.427C137.427 105.448 137.875 105 138.427 105V106ZM152.573 105V106H138.427V105H152.573ZM152.573 105C153.125 105 153.573 105.448 153.573 106H152.573V105ZM156.614 106H155.614C155.614 105.448 156.062 105 156.614 105V106ZM170.761 105V106H156.614V105H170.761ZM170.761 105C171.313 105 171.761 105.448 171.761 106H170.761V105ZM174.802 106H173.802C173.802 105.448 174.25 105 174.802 105V106ZM188.948 105V106H174.802V105H188.948ZM188.948 105C189.5 105 189.948 105.448 189.948 106H188.948V105ZM192.989 106H191.989C191.989 105.448 192.437 105 192.989 105V106ZM207.136 105V106H192.989V105H207.136ZM207.136 105C207.688 105 208.136 105.448 208.136 106H207.136V105ZM211.177 106H210.177C210.177 105.448 210.625 105 211.177 105V106ZM225.323 105V106H211.177V105H225.323ZM225.323 105C225.875 105 226.323 105.448 226.323 106H225.323V105ZM229.364 106H228.364C228.364 105.448 228.812 105 229.364 105V106ZM243.511 105V106H229.364V105H243.511ZM243.511 105C244.063 105 244.511 105.448 244.511 106H243.511V105ZM247.552 106H246.552C246.552 105.448 247 105 247.552 105V106ZM261.698 105V106H247.552V105H261.698ZM261.698 105C262.25 105 262.698 105.448 262.698 106H261.698V105ZM265.739 106H264.739C264.739 105.448 265.187 105 265.739 105V106ZM279.886 105V106H265.739V105H279.886ZM279.886 105C280.438 105 280.886 105.448 280.886 106H279.886V105ZM283.927 106H282.927C282.927 105.448 283.375 105 283.927 105V106ZM298.073 105V106H283.927V105H298.073ZM298.073 105C298.625 105 299.073 105.448 299.073 106H298.073V105ZM302.114 106H301.114C301.114 105.448 301.562 105 302.114 105V106ZM316.261 105V106H302.114V105H316.261ZM316.261 105C316.813 105 317.261 105.448 317.261 106H316.261V105ZM320.302 106H319.302C319.302 105.448 319.75 105 320.302 105V106ZM334.448 105V106H320.302V105H334.448ZM334.448 105C335 105 335.448 105.448 335.448 106H334.448V105ZM338.489 106H337.489C337.489 105.448 337.937 105 338.489 105V106ZM352.636 105V106H338.489V105H352.636ZM352.636 105C353.188 105 353.636 105.448 353.636 106H352.636V105ZM356.677 106H355.677C355.677 105.448 356.125 105 356.677 105V106ZM370.823 105V106H356.677V105H370.823ZM370.823 105C371.375 105 371.823 105.448 371.823 106H370.823V105ZM374.864 106H373.864C373.864 105.448 374.312 105 374.864 105V106ZM389.011 105V106H374.864V105H389.011ZM389.011 105C389.563 105 390.011 105.448 390.011 106H389.011V105ZM393.052 106H392.052C392.052 105.448 392.5 105 393.052 105V106ZM407.198 105V106H393.052V105H407.198ZM407.198 105C407.75 105 408.198 105.448 408.198 106H407.198V105ZM411.239 106H410.239C410.239 105.448 410.687 105 411.239 105V106ZM425.386 105V106H411.239V105H425.386ZM425.386 105C425.938 105 426.386 105.448 426.386 106H425.386V105ZM429.427 106H428.427C428.427 105.448 428.875 105 429.427 105V106ZM443.573 105V106H429.427V105H443.573ZM443.573 105C444.125 105 444.573 105.448 444.573 106H443.573V105ZM447.614 106H446.614C446.614 105.448 447.062 105 447.614 105V106ZM461.761 105V106H447.614V105H461.761ZM461.761 105C462.313 105 462.761 105.448 462.761 106H461.761V105ZM465.802 106H464.802C464.802 105.448 465.25 105 465.802 105V106ZM479.948 105V106H465.802V105H479.948ZM479.948 105C480.5 105 480.948 105.448 480.948 106H479.948V105ZM483.989 106H482.989C482.989 105.448 483.437 105 483.989 105V106ZM498.136 105V106H483.989V105H498.136ZM498.136 105C498.688 105 499.136 105.448 499.136 106H498.136V105ZM502.177 106H501.177C501.177 105.448 501.625 105 502.177 105V106ZM516.323 105V106H502.177V105H516.323ZM516.323 105C516.875 105 517.323 105.448 517.323 106H516.323V105ZM520.364 106H519.364C519.364 105.448 519.812 105 520.364 105V106ZM534.511 105V106H520.364V105H534.511ZM534.511 105C535.063 105 535.511 105.448 535.511 106H534.511V105ZM538.552 106H537.552C537.552 105.448 538 105 538.552 105V106ZM552.698 105V106H538.552V105H552.698ZM552.698 105C553.25 105 553.698 105.448 553.698 106H552.698V105ZM556.739 106H555.739C555.739 105.448 556.187 105 556.739 105V106ZM570.886 105V106H556.739V105H570.886ZM570.886 105C571.438 105 571.886 105.448 571.886 106H570.886V105ZM574.927 106H573.927C573.927 105.448 574.375 105 574.927 105V106ZM582 106H574.927V105H581V99.1299C581 98.5776 581.448 98.1299 582 98.1299V106ZM0 80.4629C0.552259 80.4629 0.999958 80.9106 1 81.4629V95.2041L0.995117 95.3057C0.944051 95.8101 0.517874 96.2041 0 96.2041V80.4629ZM582 96.2041L581.897 96.1982C581.393 96.1469 581 95.7216 581 95.2041V81.4629C581 80.9106 581.448 80.4629 582 80.4629V96.2041ZM0 62.7959C0.552151 62.7959 0.999783 63.2438 1 63.7959V77.5371L0.995117 77.6396C0.943753 78.1437 0.517653 78.5371 0 78.5371V62.7959ZM582 78.5371L581.897 78.5322C581.393 78.4809 581 78.0548 581 77.5371V63.7959C581 63.2438 581.448 62.7959 582 62.7959V78.5371ZM0 45.1299L0.102539 45.1348C0.606656 45.1861 1 45.6122 1 46.1299V59.8701C1 60.4224 0.552285 60.8701 0 60.8701V45.1299ZM582 60.8701C581.448 60.8701 581 60.4224 581 59.8701V46.1299C581 45.5776 581.448 45.1299 582 45.1299V60.8701ZM0 27.4629C0.552261 27.4629 0.999962 27.9106 1 28.4629V42.2041C0.999785 42.7562 0.552152 43.2041 0 43.2041V27.4629ZM582 43.2041L581.897 43.1982C581.393 43.1469 581 42.7216 581 42.2041V28.4629C581 27.9106 581.448 27.4629 582 27.4629V43.2041ZM0 9.7959C0.552152 9.7959 0.999785 10.2438 1 10.7959V24.5371C0.999961 25.0894 0.552261 25.5371 0 25.5371V9.7959ZM582 25.5371L581.897 25.5322C581.393 25.4809 581 25.0548 581 24.5371V10.7959C581 10.2438 581.448 9.7959 582 9.7959V25.5371ZM0 0H8.07324C8.07324 0.552179 7.62538 0.999828 7.07324 1H1V6.87012C1 7.4224 0.552285 7.87012 0 7.87012V0ZM582 7.87012C581.448 7.87012 581 7.4224 581 6.87012V1H574.927C574.375 0.999824 573.927 0.552176 573.927 0H582V7.87012ZM26.2607 0C26.2607 0.552179 25.8129 0.999828 25.2607 1H11.1143C10.5621 0.99981 10.1143 0.552167 10.1143 0H26.2607ZM44.4482 0C44.4482 0.552179 44.0004 0.999828 43.4482 1H29.3018C28.7496 0.99981 28.3018 0.552167 28.3018 0H44.4482ZM62.6357 0C62.6357 0.552179 62.1879 0.999828 61.6357 1H47.4893C46.9371 0.99981 46.4893 0.552167 46.4893 0H62.6357ZM80.8232 0C80.8232 0.552179 80.3754 0.999828 79.8232 1H65.6768C65.1246 0.99981 64.6768 0.552167 64.6768 0H80.8232ZM99.0107 0C99.0107 0.552179 98.5629 0.999828 98.0107 1H83.8643C83.3121 0.99981 82.8643 0.552167 82.8643 0H99.0107ZM117.198 0C117.198 0.552179 116.75 0.999828 116.198 1H102.052C101.5 0.99981 101.052 0.552167 101.052 0H117.198ZM135.386 0C135.386 0.552179 134.938 0.999828 134.386 1H120.239C119.687 0.99981 119.239 0.552167 119.239 0H135.386ZM153.573 0C153.573 0.552179 153.125 0.999828 152.573 1H138.427C137.875 0.99981 137.427 0.552167 137.427 0H153.573ZM171.761 0C171.761 0.552179 171.313 0.999828 170.761 1H156.614C156.062 0.99981 155.614 0.552167 155.614 0H171.761ZM189.948 0C189.948 0.552179 189.5 0.999828 188.948 1H174.802C174.25 0.99981 173.802 0.552167 173.802 0H189.948ZM208.136 0C208.136 0.552179 207.688 0.999828 207.136 1H192.989C192.437 0.99981 191.989 0.552167 191.989 0H208.136ZM226.323 0C226.323 0.552179 225.875 0.999828 225.323 1H211.177C210.625 0.99981 210.177 0.552167 210.177 0H226.323ZM244.511 0C244.511 0.552179 244.063 0.999828 243.511 1H229.364C228.812 0.99981 228.364 0.552167 228.364 0H244.511ZM262.698 0C262.698 0.552179 262.25 0.999828 261.698 1H247.552C247 0.99981 246.552 0.552167 246.552 0H262.698ZM280.886 0C280.886 0.552179 280.438 0.999828 279.886 1H265.739C265.187 0.99981 264.739 0.552167 264.739 0H280.886ZM299.073 0C299.073 0.552185 298.625 0.999838 298.073 1H283.927C283.375 0.99981 282.927 0.552167 282.927 0H299.073ZM317.261 0C317.261 0.552185 316.813 0.999838 316.261 1H302.114C301.562 0.999819 301.114 0.552173 301.114 0H317.261ZM335.448 0C335.448 0.552179 335 0.999828 334.448 1H320.302C319.75 0.999819 319.302 0.552173 319.302 0H335.448ZM353.636 0C353.636 0.552179 353.188 0.999828 352.636 1H338.489C337.937 0.999819 337.489 0.552173 337.489 0H353.636ZM371.823 0C371.823 0.552179 371.375 0.999828 370.823 1H356.677C356.125 0.999819 355.677 0.552173 355.677 0H371.823ZM390.011 0C390.011 0.552179 389.563 0.999828 389.011 1H374.864C374.312 0.999819 373.864 0.552173 373.864 0H390.011ZM408.198 0C408.198 0.552179 407.75 0.999828 407.198 1H393.052C392.5 0.999819 392.052 0.552173 392.052 0H408.198ZM426.386 0C426.386 0.552179 425.938 0.999828 425.386 1H411.239C410.687 0.999819 410.239 0.552173 410.239 0H426.386ZM444.573 0C444.573 0.552179 444.125 0.999828 443.573 1H429.427C428.875 0.999819 428.427 0.552173 428.427 0H444.573ZM462.761 0C462.761 0.552179 462.313 0.999828 461.761 1H447.614C447.062 0.999819 446.614 0.552173 446.614 0H462.761ZM480.948 0C480.948 0.552179 480.5 0.999828 479.948 1H465.802C465.25 0.999824 464.802 0.552176 464.802 0H480.948ZM499.136 0C499.136 0.552179 498.688 0.999828 498.136 1H483.989C483.437 0.999824 482.989 0.552176 482.989 0H499.136ZM517.323 0C517.323 0.552177 516.875 0.999826 516.323 1H502.177C501.625 0.999824 501.177 0.552176 501.177 0H517.323ZM535.511 0C535.511 0.552177 535.063 0.999826 534.511 1H520.364C519.812 0.999824 519.364 0.552176 519.364 0H535.511ZM553.698 0C553.698 0.552177 553.25 0.999825 552.698 1H538.552C538 0.999824 537.552 0.552176 537.552 0H553.698ZM571.886 0C571.886 0.552176 571.438 0.999824 570.886 1H556.739C556.187 0.999824 555.739 0.552176 555.739 0H571.886Z" fill="#467877"/>
</svg>
