<svg width="44" height="44" viewBox="0 0 44 44" fill="none" xmlns="http://www.w3.org/2000/svg">
<path d="M17.1875 13.9785V18.791" stroke="#AFDDD9" stroke-width="2"/>
<path d="M4.35352 21.9993C4.35352 26.6793 6.21263 31.1676 9.52186 34.4768C12.8311 37.7861 17.3194 39.6452 21.9993 39.6452C26.6793 39.6452 31.1676 37.7861 34.4768 34.4768C37.7861 31.1676 39.6452 26.6793 39.6452 21.9993C39.6452 17.3194 37.7861 12.8311 34.4768 9.52186C31.1676 6.21263 26.6793 4.35352 21.9993 4.35352C17.3194 4.35352 12.8311 6.21263 9.52186 9.52186C6.21263 12.8311 4.35352 17.3194 4.35352 21.9993Z" stroke="#AFDDD9" stroke-width="2"/>
<path d="M30.0202 22C30.0202 26.4297 26.4291 30.0208 21.9993 30.0208C17.5696 30.0208 13.9785 26.4297 13.9785 22" stroke="#AFDDD9" stroke-width="2"/>
<path d="M25.207 18.7904V17.9883C25.207 16.6593 26.2844 15.582 27.6133 15.582C28.9422 15.582 30.0195 16.6593 30.0195 17.9883V18.7904" stroke="#AFDDD9" stroke-width="2"/>
</svg>
